<svg xmlns="http://www.w3.org/2000/svg" width="44.713" height="70.984" viewBox="0 0 44.713 70.984"><defs><style>.a{fill:#9ea69c;}</style></defs><g transform="translate(-40.197 -36.36)"><path class="a" d="M55.716,175c-1.381,0-3.472.035-4.7.068-1.109.03-2.177.058-3.175.058a9.791,9.791,0,0,1-1.136-.08c.155,4.289.233,8.943.233,13.836,0,4.209-.062,6.783-.185,10.07l-.047,1.281a8.07,8.07,0,0,1,1.177-.059,11.911,11.911,0,0,1,1.3.048c-.15-2.823-.223-5.909-.223-7.529v-3.1l.461.028c.624.038,1.074.083,4.077.083,7.2,0,10.7-2.834,10.7-7.98C64.2,177.386,61.483,175,55.716,175Zm-3.558,14.066c-.632,0-2.172-.043-2.793-.085l-.406-.027v-4.174c0-2.765.069-5.593.21-8.645l.017-.378.377-.034c.927-.084,2.607-.128,3.515-.128,6.048,0,8.515,1.885,8.515,6.506S58.419,189.064,52.158,189.064Z" transform="translate(-4.365 -92.925)"/><path class="a" d="M130.539,200.5c-.227-6.147-.316-10.563-.316-14.527,0-4.1.071-6.682.218-9.619l.05-1.007a11.971,11.971,0,0,1-2.58,0c.164,2.178.3,7.04.336,11.511v.12l-3.2.073c-1.443.024-2.31.036-3.853.036s-2.411-.012-3.852-.036l-2.839-.073v-.119c.015-4.331.079-10.158.21-11.507a10.877,10.877,0,0,1-2.468,0c.222,3.231.258,5.769.258,10.627,0,6.106-.1,10.529-.343,14.522a9.36,9.36,0,0,1,2.522,0c-.142-1.56-.187-7.709-.182-12.233v-.119l.119,0c1.542-.023,1.281-.041,2.724-.053s2.3-.017,3.851-.017,2.4.006,3.852.017,1.549.03,3.092.053l.118,0v.119c.019,5.14-.089,9.77-.306,12.233a10.419,10.419,0,0,1,1.255-.051A10.732,10.732,0,0,1,130.539,200.5Z" transform="translate(-48.234 -93.161)"/><g transform="translate(40.197 36.36)"><path class="a" d="M84.9,57.564h0l-.06.014A55.7,55.7,0,0,0,76.046,60.3a60.046,60.046,0,0,0,8.429-6.142c.011-.01.006-.025-.006-.025h-.006l-.052.02a57.563,57.563,0,0,0-8.5,3.969,67.838,67.838,0,0,0,7.613-7.337c.01-.011,0-.025-.007-.025l-.007,0-.077.042a63.134,63.134,0,0,0-8.058,5.047,72.2,72.2,0,0,0,6.693-8.281c.008-.012,0-.024-.008-.024l-.009,0s-.048.033-.055.04a67.247,67.247,0,0,0-7.7,6.319,76.68,76.68,0,0,0,5.825-9.27c.007-.012,0-.023-.01-.023a.016.016,0,0,0-.01,0l-.053.049a71.345,71.345,0,0,0-7.122,7.5,80.274,80.274,0,0,0,4.819-10.1c0-.013,0-.022-.011-.022a.015.015,0,0,0-.011.006l-.046.054a75.557,75.557,0,0,0-6.333,8.5A83.239,83.239,0,0,0,75,39.935c0-.013,0-.021-.012-.021a.015.015,0,0,0-.012.008l-.026.04a78.787,78.787,0,0,0-5.468,9.531,85.428,85.428,0,0,0,2.5-11.189c0-.012,0-.02-.012-.02a.016.016,0,0,0-.013.01l-.02.041A81.542,81.542,0,0,0,67.51,48.679a86.737,86.737,0,0,0,1.264-11.5c0-.012-.006-.018-.013-.018a.015.015,0,0,0-.014.011l-.016.044a83.018,83.018,0,0,0-3.285,11.035,87.107,87.107,0,0,0,0-11.692c0-.011-.007-.016-.014-.016s-.011,0-.014.013l-.009.038a75.5,75.5,0,0,0-1.9,11.924h0c0,.046-.008.091-.012.137l-.013.143V48.8a95.655,95.655,0,0,0-.924-12.429c0-.01-.007-.015-.012-.015s-.011,0-.012.015q-.054.395-.106.79l-.008.06q-.043.329-.084.659l-.015.124q-.037.3-.072.6-.012.1-.023.2c-.02.173-.04.347-.059.521-.01.092-.02.184-.029.276-.016.151-.033.3-.048.455-.011.111-.022.223-.033.335-.013.134-.026.268-.039.4s-.023.257-.035.386-.022.24-.032.361c-.013.143-.024.288-.036.432-.009.108-.018.215-.026.323-.012.16-.024.322-.036.483-.007.094-.014.187-.02.282-.012.173-.023.349-.034.524-.005.085-.011.17-.016.256-.011.181-.021.365-.031.549,0,.082-.009.163-.014.245-.01.19-.019.383-.028.576,0,.077-.008.154-.011.231-.009.2-.016.4-.024.6l-.009.23c-.007.2-.013.4-.019.6,0,.081,0,.161-.007.243-.005.2-.01.4-.014.6,0,.089,0,.177-.006.266,0,.2-.006.393-.009.592,0,.078,0,.154,0,.232a76.1,76.1,0,0,0-1.934-12.245c0-.009-.008-.013-.014-.013s-.013.006-.014.016q-.022.4-.042.793c0,.028,0,.055,0,.083q-.015.317-.029.635c0,.058,0,.116-.007.175q-.011.272-.021.544c0,.083,0,.166-.008.249-.005.158-.01.315-.015.473,0,.106,0,.213-.008.319,0,.135-.006.27-.009.405s0,.253-.006.379,0,.235,0,.354c0,.142,0,.285,0,.427,0,.1,0,.207,0,.311,0,.156,0,.313,0,.47,0,.093,0,.185,0,.278,0,.168,0,.336.006.5,0,.084,0,.168,0,.253,0,.177.007.356.011.535,0,.077,0,.155.005.233,0,.186.011.373.017.561l.007.221q.01.289.023.581l.009.215q.013.3.029.6c0,.072.007.144.011.216q.016.3.035.606c0,.075.009.149.014.224q.019.3.041.607c.006.081.011.162.017.244.014.2.03.4.046.6,0,.052.008.1.012.155A83.37,83.37,0,0,0,56.36,37.172a.015.015,0,0,0-.014-.011c-.007,0-.014.007-.013.018q.021.39.045.78c0,.034,0,.067.006.1q.019.306.04.614.006.1.014.194.018.26.037.521c.007.089.014.177.021.266.012.15.023.3.036.45.009.108.018.217.028.326.011.132.022.263.035.4s.023.248.035.372.022.235.034.353c.014.137.028.276.043.414l.033.316c.016.15.033.3.05.451.011.1.021.191.033.287.019.16.039.32.058.481.011.088.021.176.033.265q.032.251.066.5c.011.084.022.168.034.253.023.173.048.348.073.523q.017.123.035.246.039.268.08.538.018.122.037.244.043.274.087.551.02.122.04.245.046.278.094.561.021.125.043.251.049.281.1.566.024.133.048.266.051.28.105.564c.008.043.015.084.024.127a81.716,81.716,0,0,0-4.632-10.909.015.015,0,0,0-.013-.01c-.008,0-.014.008-.012.02q.063.384.13.768c.006.034.012.067.017.1q.052.3.106.6c.011.063.023.126.035.19q.046.256.094.512c.016.084.032.169.048.254.028.15.057.3.086.449l.061.307c.026.132.052.264.079.4.024.117.049.235.073.353s.049.236.074.354.056.263.085.394c.023.106.046.211.069.317q.047.213.1.427c.022.1.044.2.067.293.035.15.07.3.106.451l.066.274q.057.237.116.476l.064.259q.062.247.126.5l.064.246q.067.257.137.516.032.119.064.239.071.264.146.531l.066.237q.076.27.154.542c.023.08.046.161.07.241q.08.274.162.55l.075.249q.083.275.168.553c.01.033.02.066.03.1a78.973,78.973,0,0,0-5.731-10.063.015.015,0,0,0-.012-.008c-.008,0-.015.009-.012.021q.1.37.211.739l.03.1q.083.286.168.572l.055.184c.049.164.1.327.148.491.024.081.05.162.075.242q.067.216.134.432l.092.289q.061.194.124.388.052.163.106.326l.116.352q.059.179.12.358l.11.326c.044.127.088.255.133.383q.052.152.106.3.071.2.145.407l.1.287q.077.212.156.425l.1.277.166.44.1.269q.088.227.177.455l.1.262q.092.234.187.47l.105.26q.1.238.2.479l.11.264q.1.241.2.484l.117.274q.1.241.209.485l.04.092a75.6,75.6,0,0,0-6.665-9,.015.015,0,0,0-.011-.006c-.009,0-.016.01-.011.022q.139.341.281.682l.051.121q.108.26.218.52l.092.214c.06.141.12.283.182.424.041.1.083.191.125.286.051.117.1.234.154.352s.1.227.152.34l.134.3.176.384.118.257q.1.209.2.419c.035.075.07.149.105.224q.105.222.214.446l.1.2c.075.155.152.311.229.467l.091.185q.121.243.245.487l.086.17q.127.25.258.5l.085.164q.133.254.27.511l.086.162q.138.259.281.52l.088.162q.143.261.29.525l.094.169q.146.261.3.524l.1.183q.147.258.3.518l.059.1a71.554,71.554,0,0,0-7.513-7.964.016.016,0,0,0-.01,0c-.01,0-.016.011-.01.023q.174.318.35.633l.057.1q.137.245.275.489l.107.188c.076.134.153.268.23.4l.147.252.2.335c.06.1.121.2.182.307l.167.281c.069.116.14.231.21.347l.147.241c.078.128.158.256.237.384l.128.205c.086.137.173.275.26.412l.114.18c.092.145.187.29.281.436l.1.16q.147.226.3.453l.1.147q.155.231.313.465l.1.141q.16.235.325.472l.1.141q.165.237.335.477l.1.144q.169.238.343.478l.11.152q.172.236.348.475l.121.164q.173.233.351.469l.077.1a67.464,67.464,0,0,0-8.139-6.724l-.009,0c-.01,0-.016.013-.008.024q.205.288.413.575l.053.074q.167.229.334.458l.114.154q.138.187.278.375l.163.216.235.312.2.261.2.265.239.306.172.219.27.34.15.188c.1.122.2.244.3.366l.132.162c.106.129.213.258.321.387l.119.143q.169.2.342.4l.11.129q.178.208.36.417l.1.12q.184.211.374.424l.106.119q.188.212.382.425l.112.124q.193.212.391.425l.118.128q.2.211.4.423l.13.138.4.414.094.1a63.328,63.328,0,0,0-8.554-5.4l-.007,0c-.011,0-.017.014-.007.025l.023.024h0l.009.01a68.9,68.9,0,0,0,5.156,5.128l.005,0q.255.227.517.455l.016.015q.258.226.524.452l.023.02q.261.223.529.446l.035.03q.267.223.542.448l.037.031q.274.224.558.451l.039.032.083.067a57.973,57.973,0,0,0-9.037-4.264h-.006c-.012,0-.017.015-.006.025l.049.041h0l.01.009c.577.493,1.161.975,1.759,1.448l.145.115.287.223.221.171.257.2.259.2.239.178.287.212.226.164.312.225.215.152.334.235.207.143.355.244.2.135.375.251.2.131.393.257.193.125.412.263.192.121.432.269.189.117c.149.092.3.183.452.275l.188.113.471.28.129.076a55.89,55.89,0,0,0-9.4-2.964h0a.013.013,0,0,0,0,.024l.052.034h0l.459.3.046.03.5.324.053.034.471.3.075.047.462.291.071.045q.236.148.474.294l.061.038q.255.156.513.311l.027.016q.263.158.531.315l.053.031q.25.146.5.29l.071.04q.249.141.5.282l.074.041q.258.142.522.284l.063.034q.279.149.564.3l.036.019q.292.151.592.3l.064.032q.28.14.567.279l.087.042q.28.135.568.27l.095.045q.293.136.594.272l.084.038q.318.143.646.285l.037.016a52.539,52.539,0,0,0-9.46-1.482h0a.013.013,0,0,0,0,.024l.039.018h0l.51.236.157.072.388.179.2.092.346.158.221.1.333.149.226.1.341.15.221.1.366.157.2.086.457.191.117.049q.289.119.583.235l.155.061c.145.057.29.114.437.17l.227.086.378.141.256.093.365.131.271.095.37.126.279.093.387.125.277.088c.146.046.294.09.443.135l.238.072q.33.1.67.192l.325.089.388.1.1.028c-1.395-.105-2.686-.154-3.909-.154a49.056,49.056,0,0,0-5.405.305.012.012,0,0,0,0,.023l.677.181.248.066.411.108.327.086.336.086.384.1.181.045q.477.119.968.234l.155.037c.172.04.347.079.522.119l.175.039q.274.06.553.119l.115.024c.852.177,1.737.34,2.659.479l.1.015q.333.049.673.1l.066.009q1.088.144,2.246.238h.014a45.045,45.045,0,0,0-8.793,1.824.011.011,0,0,0,0,.021l.05,0h.009l.556.037.058,0,.531.032.1.006.505.027.164.008.465.021.24.009.41.015.321.009.345.01.414.007.27,0q.346,0,.7,0,.374,0,.757-.006l.3-.006.46-.01.392-.013.369-.014.452-.021.3-.017c.169-.01.339-.02.51-.032l.212-.016q.931-.068,1.881-.179l.2-.022a40.843,40.843,0,0,0-7.75,3.338.009.009,0,0,0,0,.017h0l.065-.01h0l.406-.061.234-.038.252-.041.25-.042.264-.046.249-.044.324-.06.316-.06.4-.078.246-.05.317-.066.264-.057.33-.073.252-.056q.272-.062.548-.128l.24-.058.357-.088.281-.071.329-.085.288-.076.358-.1.388-.109.43-.124.3-.091.31-.094.32-.1.3-.1.325-.106.313-.106q.287-.1.572-.2l.262-.094.139-.05a35.273,35.273,0,0,0-6.059,4.419c-.006.005,0,.014,0,.014h0l.088-.034h0l.006,0,.282-.11.083-.033.24-.095.106-.042.233-.093.115-.046.235-.095.115-.047.25-.1.1-.042.271-.113.087-.036.3-.125.061-.026.325-.14.046-.02.35-.154.009,0c3.034-1.352,6.536-3.283,8.61-6.007a.919.919,0,0,1-.082.074,38.381,38.381,0,0,1-5.138,3.3c-1.629.934-3.727,2.121-6.271,3.724h0a35.234,35.234,0,0,1,6.182-4.373l.129-.052q.368-.144.732-.3l.058-.025q.4-.169.795-.347l.024-.01h0a25.262,25.262,0,0,0,3.572-2A38.935,38.935,0,0,1,55.642,69.6a87.984,87.984,0,0,0-8.713,2.855h0A41.2,41.2,0,0,1,54.773,69.2l.146-.022q.312-.044.624-.093l.223-.037q.347-.057.695-.121l.1-.019a30.629,30.629,0,0,0,6-1.771,52.575,52.575,0,0,1-8.668,1.146c-2.987.228-6.377.484-10.183,1.062h0a45.13,45.13,0,0,1,8.885-1.74q.542.036,1.1.058l.425.016.378.01c.3.007.6.011.906.011.358,0,.724-.006,1.093-.015l.206-.006a51.1,51.1,0,0,0,5.859-.542l-.393,0A121.93,121.93,0,0,1,50,66.223c-3.148-.344-6.132-.67-8.262-.719a48.073,48.073,0,0,1,4.887-.252c1.419,0,2.9.066,4.466.2q.666.165,1.374.319l.024.006c.2.043.4.084.6.125l.189.039.5.1.321.062.414.075.433.076.348.058.529.086.3.045c.2.031.4.061.609.09l.261.036q.331.046.671.09l.1.013h0c1.4.179,3.167.35,4.8.469-2.663-.452-7.027-1.656-11.007-2.8-3.887-1.121-7.9-2.277-10.718-2.807a52.449,52.449,0,0,1,9.478,1.594l.046.019.26.108.116.048.386.157.026.011.373.149.085.033.33.129.084.032.352.135.061.023c2.693,1.021,6.122,2.1,10.129,3.173-3.616-1.378-6.783-2.761-10.183-4.29-3.177-1.428-6.842-3.091-11.737-5.087h0a55.674,55.674,0,0,1,9.6,3.13l.115.066.231.133.519.294.206.115.405.226.229.126.553.3.236.128.442.237.211.112.593.313.257.134.548.284.256.132.528.269.251.127.669.336.224.111.573.284.212.1.624.306h0c1.279.624,2.979,1.428,4.441,2.107-3.437-1.856-6.9-3.944-10.2-5.985-3.194-1.975-6.867-4.259-11.311-6.763h0a59.538,59.538,0,0,1,9.153,4.419c.2.155.4.311.6.468l.086.066q.6.461,1.243.934l.1.072q.306.225.62.452l.03.021q.326.236.664.475l.13.091q.29.205.587.412l.111.078q.336.233.682.47l.165.112.566.383.186.125q.347.232.7.468l.194.128.568.372.242.157c.235.152.472.305.713.459h0c1.215.778,2.775,1.743,4.167,2.584-3.351-2.389-5.78-4.319-8.5-6.544-2.758-2.257-6.22-5.1-12.092-9.525h0a62.914,62.914,0,0,1,8.606,5.526l.213.216.2.2q.237.238.48.478l.225.222.307.3.261.253.3.288q.234.224.476.451l.274.258.351.326.211.2.388.356.1.089q.46.419.942.849l.03.027.509.45.067.059c1.879,1.652,4.222,3.6,6.658,5.528-4.065-3.8-6.922-6.718-9.96-9.881-2.449-2.55-5.271-5.506-9.211-9.356h0a67,67,0,0,1,8.178,6.856l.286.37.1.124q.228.292.463.589l.17.214.323.4.2.248.33.4.191.233q.234.283.475.571c.093.111.188.223.282.335l.243.287.323.379.191.222q.625.726,1.3,1.482l.1.116q.235.264.476.532l.046.051c1.561,1.733,3.519,3.8,5.5,5.82C59.4,63.4,56.664,59.813,54,56.254c-2.542-3.392-5.2-6.955-8.7-11.246h0a71.17,71.17,0,0,1,7.537,8.1q.371.627.769,1.272l.116.188q.161.26.326.523l.137.218q.179.283.362.57l.1.152q.227.353.462.713l.152.231q.164.25.332.5l.2.3.309.461.209.31q.2.3.412.6l.307.445c.1.143.2.286.3.431l.287.41.264.375.31.437.253.354q.311.434.634.879l.218.3.37.505.151.206h0c.806,1.094,1.83,2.451,2.745,3.643-2.632-4.067-5.587-8.992-8.535-13.969-2.048-3.458-4.207-7.133-6.391-10.693h0a75.364,75.364,0,0,1,6.682,9.163q.339.76.707,1.548l.03.064q.176.376.358.758l.032.068q.39.815.813,1.663l.082.164q.159.319.323.641l.146.287q.137.268.278.54l.17.329c.094.18.189.362.285.544q.168.32.341.645c.08.15.159.3.241.451l.283.525.176.324q.155.285.315.575l.147.267c.118.213.236.427.357.643l.01.018c.912,1.634,2.047,3.594,3.148,5.444-2.537-5.2-4.731-10.025-7.325-15.82-1.411-3.152-3.046-6.858-4.912-10.944h0a78.5,78.5,0,0,1,5.724,10.2q.248.785.522,1.6l.041.121q.119.355.244.716l.059.171q.126.364.257.735l.046.132q.151.425.309.86l.094.255q.107.292.217.589c.052.139.1.281.158.422l.162.428q.095.25.192.5l.124.321q.573,1.483,1.229,3.081l.027.066c.8,1.957,1.815,4.3,2.831,6.561-1.809-5.065-3.43-10.121-5.024-15.205-1.3-4.156-2.672-8.565-4.241-13.164-.006-.038.007.038,0,0A81.1,81.1,0,0,1,57.9,49.806q.158.8.336,1.625l.025.117q.08.367.163.742l.046.2q.078.345.159.7c.017.072.033.143.05.215q.095.407.2.822l.037.153q.1.4.2.806c.037.148.075.3.113.448s.075.3.113.446q.068.267.139.537l.092.35c.054.207.109.415.166.625l.046.17q.446,1.659.97,3.461l.009.029c.508,1.744,1.171,3.907,1.8,5.883-.922-3.728-1.946-8.812-2.922-13.855-.928-4.791-1.98-10.291-3.184-15.621,0-.031,0,.031,0,0a82.584,82.584,0,0,1,3.392,11.78c.014.155.028.311.042.468.007.073.013.144.02.217q.038.412.081.832c.009.083.018.169.026.253.021.2.042.4.064.6.013.12.027.241.041.362q.028.252.058.506c.016.137.032.275.049.414.019.155.038.311.058.467s.037.3.057.453c.014.112.03.226.044.339q.072.551.151,1.118c.013.09.025.18.038.27.031.219.063.44.1.662q.018.126.037.253.052.355.107.717c.007.049.015.1.022.148.426,2.778,1.036,6.172,1.723,9.614-.564-4.211-1.127-10.348-1.7-17.048-.353-4.128-.71-8.554-1.138-13.032,0-.054,0,.054,0,0a79.546,79.546,0,0,1,1.895,12.737c0,.019,0,.038,0,.057,0,.066,0,.133,0,.2q0,.322,0,.651l0,.275q0,.313.007.632c0,.083,0,.166,0,.25,0,.289.01.58.016.875,0,.056,0,.113,0,.169q.008.363.019.731c0,.11.007.222.01.333q.009.3.02.612c0,.116.008.231.012.348q.014.372.03.753.007.181.016.362c.011.253.023.507.036.765.007.14.015.283.022.425q.015.285.03.574.013.231.026.464c.012.2.024.406.036.61.01.166.02.33.03.5q.028.441.058.891c.012.17.024.343.036.515q.02.282.04.568t.041.548c.015.2.03.394.045.593.014.177.027.353.041.532l0,.027h0c.1,1.231.23,2.748.355,4.087v-30.2c.976,7.369,1.3,15.949,0,30.2h0c.553-4.192,1.093-10.46,1.657-17.053.36-4.216.733-8.573,1.173-13.157,0,.034,0,.08.007.129a85.589,85.589,0,0,1-.107,12.177,166.9,166.9,0,0,1-2.73,17.9c.91-3.7,1.917-8.888,2.88-13.865.942-4.867,2.008-10.37,3.236-15.782l-.01.171a85.162,85.162,0,0,1-1.407,11.915,166.505,166.505,0,0,1-4.7,17.56c1.749-4.924,3.429-10.265,4.984-15.222,1.327-4.232,2.7-8.608,4.307-13.3l-.026.155a83.933,83.933,0,0,1-2.678,11.562,162.13,162.13,0,0,1-6.588,16.808c2.455-5.049,4.754-10.182,7.287-15.842,1.441-3.219,3.07-6.86,4.988-11.056l-.039.134A81.724,81.724,0,0,1,70.9,51.411a155.5,155.5,0,0,1-8.342,15.724c2.58-4.005,5.616-9.127,8.5-14,2.093-3.534,4.257-7.186,6.492-10.824l-.065.158A78.686,78.686,0,0,1,72.4,52.9a147.859,147.859,0,0,1-9.845,14.237c3.1-3.681,5.892-7.4,8.524-10.912,2.58-3.443,5.249-7,8.828-11.383l-.093.168a75.152,75.152,0,0,1-6.143,9.583A141.415,141.415,0,0,1,62.554,67.135c3.965-3.713,6.937-6.8,9.931-9.917,2.487-2.59,5.3-5.522,9.343-9.464l-.1.143a70.7,70.7,0,0,1-7.047,8.55A132.853,132.853,0,0,1,62.554,67.135c3.285-2.347,5.786-4.384,8.475-6.583,2.789-2.282,6.254-5.116,12.247-9.627l-.13.141a66.362,66.362,0,0,1-8.133,7.661,128.811,128.811,0,0,1-12.459,8.408c3.387-1.835,6.921-4.011,10.18-6.027s6.918-4.277,11.461-6.83l-.129.109a61.269,61.269,0,0,1-9.176,6.491h0c-3.181,1.838-7.023,3.8-12,6.111l-.341.146C66.2,65.747,69.3,64.34,72.721,62.8c3.226-1.45,6.877-3.092,11.888-5.131l-.136.088a56.345,56.345,0,0,1-9.655,5.352h0a96.7,96.7,0,0,1-12.266,4.025c2.661-.452,7.02-1.7,11-2.85,4.049-1.168,8.226-2.372,11.064-2.869l-.213.1a53.482,53.482,0,0,1-10.294,3.911,70.026,70.026,0,0,1-11.553,1.709c3.6.008,8.492-.516,12.549-.96,3.287-.359,6.393-.7,8.539-.724l-.215.058a53.943,53.943,0,0,1-10.693,2.078c-.968.069-1.971.11-3.023.11a50.153,50.153,0,0,1-7.157-.563,53.972,53.972,0,0,0,8.672,1.1c3.044.232,6.485.495,10.381,1.1l-.2.013c-1.721.113-3.217.165-4.675.165a48.236,48.236,0,0,1-6.374-.31,32.122,32.122,0,0,1-7.8-2.064,39,39,0,0,0,6.923,2.422,86.7,86.7,0,0,1,8.914,2.935l-.212-.033a52.144,52.144,0,0,1-7.516-1.634q-1.306-.4-2.478-.844a28.569,28.569,0,0,1-5.631-2.846,44.09,44.09,0,0,0,5.24,3.333c1.674.96,3.745,2.149,6.391,3.823l-.14-.055a38.919,38.919,0,0,1-7.366-3.472,19.267,19.267,0,0,1-4.125-3.628c3.19,4.19,8.249,5.934,11.911,7.366h0c.006,0,.009-.008,0-.014l-.067-.06a35.141,35.141,0,0,0-5.569-4.11,53.455,53.455,0,0,0,9.8,2.307h0a.009.009,0,0,0,0-.017l-.1-.056A40.583,40.583,0,0,0,71.3,69.4a50.987,50.987,0,0,0,5.426.2c1.894,0,3.643-.092,5.142-.2.012,0,.014-.022,0-.021s-.106-.032-.106-.032a44.759,44.759,0,0,0-8.227-1.739,58.4,58.4,0,0,0,10.348-2.132.012.012,0,0,0,0-.023l-.11-.011a48.845,48.845,0,0,0-5.294-.294c-1.075,0-2.2.037-3.4.117a58.3,58.3,0,0,0,9.771-3.861.013.013,0,0,0,0-.024h0l-.117.009a52.2,52.2,0,0,0-8.791,1.339A59.577,59.577,0,0,0,84.9,57.588.013.013,0,0,0,84.9,57.564Z" transform="translate(-40.197 -36.36)"/></g></g></svg>