<svg xmlns="http://www.w3.org/2000/svg" width="458" height="176.628" viewBox="0 0 458 176.628"><defs><style>.a,.b{fill:#9ea69c;}.b{font-size:13px;font-family:Optima-Regular, Optima;letter-spacing:0.3em;}</style></defs><g transform="translate(-121 -42.372)"><g transform="translate(-555.838 -363.517)"><g transform="translate(711.697 405.889)"><path class="a" d="M81.972,154.315c-1.852,0-4.655.046-6.3.09-1.487.041-4.158.079-5.5.079-.63,0-1.332-.036-2.143-.107.208,5.751.313,11.991.313,18.552,0,5.643-.083,7.855-.249,12.261l-.063,1.718a20.929,20.929,0,0,1,2.2-.079,16.015,16.015,0,0,1,1.737.064c-.2-3.785-.3-6.683-.3-8.855v-4.156l.618.037c.837.051,2.679.111,6.706.111,9.652,0,14.966-3.8,14.966-10.7C93.963,157.517,89.7,154.315,81.972,154.315ZM77.2,173.176c-.848,0-4.153-.058-4.985-.113l-.544-.038v-5.6c0-3.708.091-7.5.281-11.592l.023-.507.506-.046c1.243-.112,4.736-.171,5.954-.171,8.108,0,11.416,2.528,11.416,8.723S85.6,173.176,77.2,173.176Z" transform="translate(-68.035 -66.195)"/><path class="a" d="M103.691,187.046c.3-.018.591-.018.876-.018a10.089,10.089,0,0,1,1.471.073c.423-1.21.741-2.159,1.019-2.982a70.4,70.4,0,0,1,2.785-7.236l.145-.332.361-.017c2.316-.113,4.585-.113,6.988-.113,2.271,0,4.618,0,6.933.113l.365.017,1.1,2.583c.415.982.741,1.746,1.011,2.376a48.08,48.08,0,0,1,2.053,5.426,19.709,19.709,0,0,1,4.267-.06c-1.006-2.313-1.961-4.494-2.885-6.6l-.071-.165c-3.765-8.6-7.019-16.032-11.2-26.489h-.286c-5.006,11.722-8.723,19.852-13.862,31.092Zm13.648-27.795.534,1.246c3.085,7.2,4.516,10.564,4.841,11.486l1.255,3.247h-.85c-1.654,0-3.158.017-4.5.033h-.057c-1.1.014-2.087.024-2.966.024-1.2,0-2.208-.021-2.941-.037l-.2,0c-.437-.008-.809-.016-1.121-.016h-.886Z" transform="translate(-66.272 -66.229)"/><path class="a" d="M159.566,174.1l4.574,5.154a69.538,69.538,0,0,1,6.074,7.67,23.671,23.671,0,0,1,2.98-.124c.645,0,1.31,0,1.979.034-2.546-2.942-4.38-4.975-6.007-6.777-1.792-1.987-3.487-3.864-5.8-6.581l-.654-.768.992-.184c6.932-1.279,10.75-4.763,10.75-9.811,0-5.729-3.828-8.4-12.047-8.4-2,0-3.862.054-5.356.1-1.308.037-4.947.072-6.044.072-.365,0-.813-.037-1.332-.079q-.3-.025-.633-.049c.24,4.643.358,10.721.358,18.573,0,6.945-.05,8.979-.352,14.054a19.267,19.267,0,0,1,2.014-.073,18.314,18.314,0,0,1,1.962.069c-.169-3.275-.245-5.686-.245-7.794v-6.368l.655-.094C155.051,172.489,158.581,172.757,159.566,174.1Zm-6.249-1.937-.535-.044V161.7a43.619,43.619,0,0,1,.342-5.8l.064-.473.478-.03c1.779-.111,5.775-.169,6.834-.169,6.794,0,10.238,2.745,10.238,8.161,0,5.862-4.408,8.835-13.1,8.835C156.547,172.222,153.946,172.215,153.316,172.163Z" transform="translate(-64.029 -66.195)"/><path class="a" d="M202.467,173.662a92.012,92.012,0,0,1,6.523,6.872c1.755,1.973,3.713,4.175,5.954,6.479a21.935,21.935,0,0,1,2.934-.131c.523,0,1.06,0,1.6.02-7.6-6.747-11.532-10.691-16.949-16.12l-.424-.425,9.686-9.125c2.825-2.828,5.092-5.1,7.012-6.764a19.03,19.03,0,0,1-2.931-.12A96,96,0,0,1,204.1,166.514c-2.722,2.269-4.979,3.623-6.035,3.623a.826.826,0,0,1-.8-.489l-.059-.226,0-6.6c0-3.3.093-6.133.278-8.438a20.206,20.206,0,0,1-3.9,0c.243,4.8.357,11.5.357,21.065,0,5.584-.048,6.806-.346,11.412a17.6,17.6,0,0,1,1.9-.066,19.711,19.711,0,0,1,2.008.071l-.1-1.417c-.155-2.2-.192-2.721-.192-6.127v-8.41l.607.025C199.348,171,200.958,172.286,202.467,173.662Z" transform="translate(-61.827 -66.193)"/><path class="a" d="M299.873,153.673c-10.785,0-17.755,6.7-17.755,17.059,0,10.492,6.8,17.009,17.755,17.009,10.59,0,17.705-6.835,17.705-17.009C317.578,160.209,310.794,153.673,299.873,153.673Zm0,33.346c-9,0-13.952-5.731-13.952-16.138,0-10.508,5.086-16.535,13.952-16.535,9,0,13.951,5.8,13.951,16.336C313.824,181.065,308.739,187.019,299.873,187.019Z" transform="translate(-57.449 -66.226)"/><path class="a" d="M346.745,187.706c6.284,0,10.723-2.149,13.192-6.389,2.156-3.771,2.223-5.8,2.223-15.913v-1.46c0-.981.054-4.225.255-9.536a9.989,9.989,0,0,1-2.381,0l.026.948c.134,4.751.178,6.351.178,11.435,0,7.3-.193,11.982-2.877,15.35-2.1,2.637-5.641,4.15-9.719,4.15-4.16,0-7.5-1.394-9.656-4.032-2.719-3.273-2.941-7.67-2.941-12.662,0-.975.018-2.093.06-4.791l.025-1.6c.033-2.087.076-4.908.132-8.825a19.69,19.69,0,0,1-3.915.006c.1,3.751.15,7.1.15,9.951,0,3.888-.07,4.966-.122,5.752-.026.4-.046.714-.046,1.306C331.33,182.829,335.94,187.706,346.745,187.706Z" transform="translate(-55.015 -66.192)"/><path class="a" d="M375.033,179.454h-.065c.95,5.151,5.676,8.213,12.694,8.216h.014a15.857,15.857,0,0,0,9.817-2.869,8.2,8.2,0,0,0,3.4-6.5c0-3.586-2.547-7.758-8.241-8.992-.88-.191-1.752-.358-2.593-.52-1.559-.3-3.172-.608-4.98-1.091-4.181-1.122-6.3-3.35-6.3-6.622,0-4.166,3.475-6.754,9.067-6.754,6.345,0,8.683,3.65,8.768,7.138a15.206,15.206,0,0,1,1.557-.184c.484-.04.979-.081,1.495-.072-.729-4.8-5.113-7.547-12.063-7.547s-11.979,3.79-11.979,9.011c0,3.787,2.47,6.414,7.342,7.81,1.446.415,3.279.739,5.05,1.052,1.229.217,2.391.423,3.3.64,4.057.967,6.479,3.817,6.479,7.625,0,5.233-5.235,7.1-10.133,7.1-6.033,0-9.666-2.875-9.762-7.7A15.724,15.724,0,0,1,375.033,179.454Z" transform="translate(-52.857 -66.227)"/><path class="a" d="M438.881,187.115c0-.069-.007-.139-.012-.208-.015-.292-.028-.581-.028-.872s.014-.58.028-.871l.01-.185c-5.914.407-15.46.573-18.484.573h-2.043V169.117h3.165c4.13,0,12.621,0,15.568.346-.027-.34-.041-.626-.041-.886,0-.315.017-.673.053-1.117-5.264.309-14.517.409-17.151.409h-1.593V155.842h1.987c4.021,0,13.74.154,18.315.509l-.01-.191c-.015-.276-.027-.547-.027-.8,0-.3.015-.6.03-.887l.007-.147c-5.913.1-15.561.158-17.866.158-2.216,0-4.258-.046-6.232-.138.253,4.73.36,7.9.36,14.905,0,8.1-.112,12.969-.411,17.866,3.244-.091,7.4-.149,10.886-.149C428.963,186.968,436.048,187.027,438.881,187.115Z" transform="translate(-50.902 -66.194)"/><path class="a" d="M267.49,186.952c-.3-8.242-.423-13.543-.423-18.858,0-5.5.094-8.34.293-12.279l.066-1.351a22.257,22.257,0,0,1-4.079,0c.219,2.921.4,8.821.45,14.815v.161l-6.153.1c-1.934.031-3.964.048-6.031.048s-4.1-.017-6.03-.048l-6.157-.1v-.161c.02-5.807.106-13,.282-14.809a20.564,20.564,0,0,1-3.929-.005c.3,4.332.345,7.116.345,13.63,0,8.186-.129,13.5-.461,18.85a17.536,17.536,0,0,1,4,0c-.191-2.093-.251-9.717-.243-15.783V171l.16,0q3.1-.047,6-.07t6.029-.024q3.117,0,6.03.024t6.006.07l.159,0v.159c.026,6.893-.12,12.481-.41,15.783a18.511,18.511,0,0,1,1.95-.069A20.441,20.441,0,0,1,267.49,186.952Z" transform="translate(-59.746 -66.187)"/><g transform="translate(150.004)"><path class="a" d="M294.6,110.018H294.6l-.112.026a104.367,104.367,0,0,0-16.444,5.1,112.217,112.217,0,0,0,15.771-11.49.025.025,0,0,0-.012-.046l-.009,0-.1.037a107.55,107.55,0,0,0-15.9,7.426A126.957,126.957,0,0,0,292.03,97.343c.019-.02.007-.047-.013-.047l-.014,0-.144.078a118,118,0,0,0-15.076,9.442,135.077,135.077,0,0,0,12.523-15.493.026.026,0,0,0-.016-.045.038.038,0,0,0-.017.005s-.089.061-.1.075a125.925,125.925,0,0,0-14.412,11.823,143.522,143.522,0,0,0,10.9-17.344.028.028,0,0,0-.018-.044.03.03,0,0,0-.019.008l-.1.092A133.575,133.575,0,0,0,272.2,99.93a150.177,150.177,0,0,0,9.016-18.9c.009-.023,0-.042-.02-.042a.029.029,0,0,0-.022.012l-.085.1A141.156,141.156,0,0,0,269.236,97a155.944,155.944,0,0,0,6.857-19.964c.006-.023-.006-.04-.022-.04a.029.029,0,0,0-.023.015l-.049.075A147.427,147.427,0,0,0,265.77,94.919a159.984,159.984,0,0,0,4.672-20.934c0-.022-.009-.037-.024-.037a.026.026,0,0,0-.023.018l-.038.077A152.635,152.635,0,0,0,262.07,93.4a162.107,162.107,0,0,0,2.364-21.515c0-.022-.01-.035-.024-.035a.028.028,0,0,0-.024.021l-.03.083A155.32,155.32,0,0,0,258.21,92.6a162.825,162.825,0,0,0,.008-21.875c0-.02-.013-.03-.024-.03s-.021.007-.025.024l-.017.071A141.269,141.269,0,0,0,254.6,93.095h0c-.007.085-.015.171-.023.256s-.016.178-.024.269v.01a179,179,0,0,0-1.728-23.255c0-.018-.013-.027-.023-.027s-.02.009-.022.027q-.1.738-.2,1.479l-.015.111q-.08.615-.156,1.234l-.028.232c-.045.37-.09.742-.133,1.115-.015.126-.029.253-.043.379-.038.324-.075.649-.11.975-.019.171-.037.344-.056.516-.029.282-.06.566-.089.85-.021.208-.041.418-.062.627-.024.251-.049.5-.074.753s-.043.481-.065.722c-.02.225-.041.449-.061.675-.022.268-.044.538-.066.807-.016.2-.034.4-.049.607-.023.3-.044.6-.066.9-.013.175-.026.351-.039.527-.022.324-.043.652-.064.979-.01.161-.021.319-.03.48-.021.34-.04.683-.059,1.026l-.025.46c-.019.356-.036.717-.052,1.077-.006.145-.014.288-.02.433-.016.367-.03.74-.044,1.113-.005.144-.012.287-.017.431-.013.371-.024.748-.036,1.126,0,.152-.009.3-.013.454-.01.369-.018.744-.026,1.12,0,.166-.007.331-.01.5-.006.366-.012.737-.016,1.108,0,.145-.005.288-.006.433a142.346,142.346,0,0,0-3.62-22.909c0-.017-.015-.024-.025-.024s-.024.01-.025.03c-.027.494-.054.988-.078,1.483l-.007.154q-.028.593-.053,1.188c0,.109-.008.218-.013.326-.014.34-.027.679-.039,1.019-.005.155-.009.312-.015.467q-.014.441-.027.885c-.005.2-.009.4-.014.6-.006.253-.013.5-.017.758,0,.236-.007.473-.01.709,0,.22-.007.441-.009.662,0,.266,0,.533-.005.8,0,.193,0,.387,0,.581q0,.438,0,.881c0,.173,0,.345,0,.519,0,.313.006.629.01.945,0,.157,0,.315.006.473.006.332.014.666.021,1l.009.436c.009.347.02.7.032,1.049,0,.137.008.275.014.413.013.36.026.723.042,1.087.005.134.01.268.017.4.017.368.035.741.053,1.115.007.134.014.269.021.4.02.376.042.755.065,1.134l.025.42q.036.564.077,1.137.016.227.031.457c.027.371.056.748.085,1.126.008.1.015.193.022.291a155.923,155.923,0,0,0-6.411-21.776.028.028,0,0,0-.025-.021c-.013,0-.025.013-.024.035q.039.729.084,1.459c0,.063.008.126.012.189q.036.573.074,1.148c.007.121.017.242.025.363.023.325.045.65.069.976.013.165.026.332.04.5q.031.42.066.843c.017.2.036.406.053.609.022.247.043.492.065.74q.031.346.065.695c.021.22.042.44.064.661q.039.386.08.774c.021.2.041.394.062.591.03.28.063.561.094.844.021.178.041.357.062.535.035.3.071.6.108.9.021.165.041.33.062.5q.06.469.123.943l.063.473c.044.324.09.651.136.978l.066.462c.048.333.1.67.15,1.006l.069.455c.053.341.107.685.164,1.031.024.152.049.305.074.459.057.347.115.7.175,1.049q.041.233.082.469.091.526.187,1.058l.091.5q.1.524.2,1.055c.016.08.029.157.044.237A152.76,152.76,0,0,0,235.2,73.965a.027.027,0,0,0-.024-.018c-.014,0-.026.015-.023.037q.12.719.242,1.438c.012.063.022.125.034.188q.1.562.2,1.124c.021.119.043.237.065.355.058.319.117.639.176.958.029.158.06.317.089.474q.08.42.162.841.057.286.114.575c.049.247.1.494.148.742q.068.331.137.661c.046.22.091.442.139.662.053.246.106.492.16.738l.129.594c.059.264.12.531.181.8.041.183.083.366.125.549q.1.422.2.845c.041.171.081.342.123.514.07.295.144.592.217.89q.06.241.12.485c.078.307.156.618.237.929.039.153.079.307.119.461q.126.482.255.967c.04.149.08.3.121.448q.134.494.272.994c.042.147.083.295.125.444q.142.5.288,1.014c.043.15.087.3.131.451q.148.512.3,1.028c.046.155.093.311.14.466.1.343.208.687.315,1.035.02.063.038.124.057.187a147.873,147.873,0,0,0-10.722-18.826.029.029,0,0,0-.023-.015c-.016,0-.028.017-.022.04q.2.691.395,1.382l.057.193q.156.535.314,1.071l.1.344c.091.305.183.612.276.918.046.151.093.3.14.453.084.27.167.538.252.809.056.179.113.36.171.54.077.241.153.484.232.726.065.2.132.406.2.61.072.219.144.439.217.658s.149.446.225.67q.1.305.207.611.123.357.248.717l.2.568c.089.253.181.507.271.762.065.178.129.357.194.536.1.264.193.529.291.794q.1.26.193.519c.1.273.206.548.31.823.064.168.128.336.193.5q.162.425.331.852c.063.164.128.326.193.49.114.292.232.585.349.878q.1.242.2.487c.121.3.242.6.367.9.067.165.136.33.206.5q.187.45.381.906l.219.512c.129.3.258.6.391.907.025.058.048.113.073.171A141.387,141.387,0,0,0,224.425,81a.026.026,0,0,0-.021-.012c-.016,0-.029.019-.02.042q.26.639.525,1.275c.031.076.064.151.1.226.135.324.271.65.408.973.057.134.114.268.171.4.113.264.226.529.34.792q.117.269.235.536c.1.219.191.439.289.658s.189.425.284.637l.25.557c.108.238.218.479.328.718.073.161.146.32.22.48q.181.392.367.784c.065.14.13.278.2.418.132.277.266.556.4.834.061.126.121.252.183.378.141.291.284.581.428.873.058.115.113.23.171.345q.227.455.459.912c.053.106.107.212.162.318q.238.468.483.938c.054.1.106.2.16.306.165.317.334.637.5.957.055.1.108.2.162.3.173.322.348.647.526.973.055.1.109.2.165.3.178.325.359.654.543.982l.176.317q.274.486.554.979l.2.342q.277.483.56.97c.037.064.072.127.11.19a133.884,133.884,0,0,0-14.057-14.9.031.031,0,0,0-.019-.008c-.018,0-.03.022-.018.044q.326.6.656,1.186c.035.063.071.127.107.19q.255.458.514.915c.066.118.134.235.2.352.143.251.285.5.43.751.09.157.183.315.274.471.122.209.243.419.366.628.112.191.227.382.341.574l.313.525c.13.216.261.433.394.65.091.151.182.3.274.451q.22.359.444.718l.238.384c.161.257.324.514.488.772l.213.336c.173.271.349.543.526.815l.194.3q.275.423.559.849l.182.275c.193.289.389.579.586.87l.18.265q.3.439.608.883l.184.264c.206.3.416.594.627.892l.19.269q.316.446.641.894c.069.094.136.189.206.283q.321.442.652.889l.226.306q.324.436.656.877l.144.192a126.214,126.214,0,0,0-15.229-12.58.031.031,0,0,0-.016-.005.027.027,0,0,0-.016.045q.384.54.772,1.077l.1.139q.31.428.624.857l.214.289c.172.234.345.467.519.7l.3.405c.147.194.293.389.441.583.124.163.25.326.375.489s.254.332.382.5c.147.191.3.382.447.573l.321.41c.167.211.337.423.506.635q.14.176.281.352c.184.229.369.456.556.685l.248.3c.2.241.4.483.6.725l.223.268q.316.378.64.757l.206.241c.221.259.447.519.674.781.065.075.129.149.2.224q.345.4.7.793l.2.222c.235.264.474.529.715.794l.211.232c.24.264.485.53.73.8l.221.239q.367.394.743.792l.243.257q.365.386.742.776l.174.183a118.471,118.471,0,0,0-16-10.1l-.014,0a.027.027,0,0,0-.014.047l.043.045h0l.017.019A128.823,128.823,0,0,0,223.272,107l.009.008q.477.425.968.852l.03.027q.483.422.98.846l.044.038q.488.416.989.834l.066.056q.5.417,1.015.837l.069.058q.513.419,1.043.843l.073.059.155.126a108.374,108.374,0,0,0-16.908-7.978l-.01,0c-.021,0-.031.028-.011.046l.091.078h0l.019.017c1.079.922,2.171,1.824,3.291,2.71.09.071.179.144.271.215.177.14.357.278.536.418.138.106.274.214.412.32.158.122.32.243.481.365s.321.246.484.367l.447.333.536.4.422.306.583.421.4.284c.207.147.415.293.624.44l.388.269c.22.152.441.3.664.457l.374.253q.348.235.7.469l.37.245q.364.241.736.482l.361.233q.383.246.772.492l.358.227q.4.252.808.5l.354.218q.419.257.846.515l.351.212q.436.261.882.525l.24.143A104.693,104.693,0,0,0,211,110.018h-.006c-.024,0-.033.03-.009.046l.1.064h0q.43.283.859.564l.085.056.934.608.1.064c.294.189.587.377.882.565l.139.088q.431.274.865.546l.133.083q.442.277.888.55l.114.07q.477.293.96.582l.049.029q.493.3.993.589l.1.058q.468.272.941.544l.132.076q.467.264.942.528l.136.076c.322.178.649.355.977.532l.118.063q.521.279,1.056.556l.068.036q.546.283,1.107.565l.12.06q.523.261,1.061.523l.163.079c.35.168.7.337,1.064.5l.177.083q.548.255,1.111.509l.156.071q.6.266,1.21.533l.069.03a98.211,98.211,0,0,0-17.7-2.773h0a.023.023,0,0,0-.007.045l.073.034h0l.954.442.294.135.726.335.377.171.647.295.413.187.623.28.422.187q.318.142.639.281l.412.181.684.294c.126.052.25.106.376.16q.423.179.854.357l.219.091q.541.222,1.091.441l.29.113q.406.161.817.319l.425.16c.234.089.469.177.707.266l.479.174.683.245.507.176c.229.08.46.157.692.236l.522.174c.238.079.481.156.724.234l.517.165c.273.085.551.169.83.253.149.045.295.091.445.135q.617.183,1.253.36c.2.056.406.11.61.166.24.065.481.131.725.2l.194.052c-2.61-.2-5.025-.288-7.314-.288a91.932,91.932,0,0,0-10.112.571.022.022,0,0,0,0,.044l1.267.339.464.124.769.2.613.161.628.161.719.184.339.084q.893.222,1.81.439l.291.068c.323.074.65.149.977.221l.329.073q.512.113,1.034.223l.215.045c1.594.332,3.25.635,4.975.9l.182.027q.623.094,1.258.178l.124.017c1.356.179,2.755.331,4.2.445l.025,0a84.246,84.246,0,0,0-16.45,3.414.02.02,0,0,0,0,.039l.093.006h.017q.51.036,1.04.069l.11.007c.325.02.655.041.992.06l.2.01c.312.018.624.035.944.05l.307.015.87.04.45.017c.254.009.507.02.765.028l.6.017.644.018c.256.005.516.008.776.013.169,0,.335.007.506.009q.647.006,1.308.007.7,0,1.416-.011c.186,0,.374-.007.56-.01.285-.005.571-.012.859-.019l.734-.024.691-.026c.281-.013.563-.025.846-.04l.568-.031c.317-.019.635-.038.954-.06l.4-.029q1.743-.128,3.519-.335c.125-.015.25-.027.375-.043a76.492,76.492,0,0,0-14.5,6.246.017.017,0,0,0,.006.033h0l.122-.019h0c.248-.037.5-.075.76-.115l.439-.07c.155-.025.312-.049.471-.077l.467-.079.494-.086.464-.083c.2-.036.4-.075.608-.112l.591-.112q.368-.071.744-.147l.461-.094.593-.123.5-.107.617-.135.47-.1q.508-.116,1.025-.239l.449-.109.667-.164.527-.134q.307-.077.615-.16c.18-.046.358-.093.538-.142.223-.06.446-.122.669-.184.241-.066.484-.134.726-.2.268-.077.536-.153.8-.232.19-.056.38-.113.57-.171l.578-.175c.2-.062.4-.124.6-.188s.37-.118.556-.178c.2-.065.405-.13.608-.2s.389-.132.585-.2q.537-.183,1.07-.374c.164-.059.327-.116.491-.176l.26-.093a65.961,65.961,0,0,0-11.336,8.268.014.014,0,0,0,.007.025h.005l.165-.065h0l.012,0,.528-.207.155-.061.449-.177.2-.08.437-.173.215-.087.441-.176.216-.088.467-.191.189-.078c.168-.069.337-.139.507-.211l.163-.068.554-.233.114-.049q.3-.129.609-.262l.086-.038.653-.288.018-.008c5.676-2.528,12.227-6.141,16.108-11.238a1.669,1.669,0,0,1-.153.14,71.715,71.715,0,0,1-9.612,6.175c-3.047,1.748-6.973,3.969-11.733,6.968h0a65.937,65.937,0,0,1,11.566-8.182c.082-.031.161-.065.242-.1.459-.179.916-.363,1.368-.552l.108-.046q.752-.315,1.487-.65l.044-.019h0a47.21,47.21,0,0,0,6.683-3.737c-3.042,1.636-7.836,3.159-12.931,4.619a164.857,164.857,0,0,0-16.3,5.342h0a77.011,77.011,0,0,1,14.674-6.1c.091-.013.183-.028.273-.041q.584-.082,1.167-.174l.418-.068q.65-.107,1.3-.226l.184-.036a57.315,57.315,0,0,0,11.216-3.313c-4.275,1.126-9.992,1.67-16.217,2.144-5.587.426-11.931.906-19.051,1.988-.014,0,.013,0,0,0a84.4,84.4,0,0,1,16.623-3.255q1.014.066,2.058.108c.264.01.529.021.8.029.235.006.47.014.706.018.559.013,1.122.021,1.695.021.671,0,1.355-.012,2.044-.028l.385-.01a95.539,95.539,0,0,0,10.96-1.014l-.736,0a228.108,228.108,0,0,1-22.75-1.71c-5.888-.644-11.472-1.254-15.457-1.345A89.635,89.635,0,0,1,223,124.4c2.656,0,5.419.124,8.356.373q1.247.309,2.571.6l.045.01c.366.08.74.157,1.115.234l.354.073c.3.061.615.121.927.18.2.039.4.078.6.115.255.047.515.093.774.14s.537.1.81.143l.651.109c.327.054.656.108.99.16.184.029.37.057.555.085.376.058.755.113,1.14.169l.489.067q.62.087,1.255.169l.184.024h0c2.624.335,5.924.655,8.985.877-4.982-.846-13.148-3.1-20.593-5.245-7.272-2.1-14.772-4.261-20.054-5.252a98.006,98.006,0,0,1,17.733,2.981l.086.036.487.2.217.09.722.294.048.019c.231.093.463.186.7.278l.159.063.618.241.157.061.658.252.114.044c5.038,1.908,11.455,3.936,18.95,5.936-6.766-2.577-12.691-5.165-19.052-8.026-5.943-2.672-12.8-5.781-21.959-9.517-.046-.03.046.029,0,0a104.147,104.147,0,0,1,17.958,5.855l.216.124.431.248c.321.184.643.367.971.551l.386.216.758.422.427.236q.512.282,1.035.565l.442.239q.409.22.826.443l.395.211c.364.193.736.388,1.109.585l.48.251,1.025.532.48.247.988.5.469.238q.617.312,1.251.629l.418.209,1.071.531.4.2c.385.189.773.38,1.168.572h0c2.394,1.167,5.574,2.672,8.31,3.943-6.43-3.474-12.909-7.379-19.085-11.2-5.977-3.7-12.847-7.968-21.162-12.652h0a111.36,111.36,0,0,1,17.125,8.268c.37.29.748.581,1.129.875l.162.124q1.129.863,2.326,1.746l.184.135c.382.28.767.563,1.161.846l.055.04q.612.442,1.243.889l.242.171q.543.384,1.1.771l.209.146q.63.438,1.276.881c.1.069.207.14.309.21q.524.356,1.06.717l.347.234q.649.434,1.316.876l.362.238q.526.346,1.063.7l.452.295c.44.284.883.57,1.333.858h0c2.272,1.455,5.192,3.262,7.8,4.834-6.268-4.47-10.815-8.081-15.9-12.244-5.161-4.222-11.638-9.542-22.624-17.821h0a117.71,117.71,0,0,1,16.1,10.338l.4.4.368.373q.442.446.9.9l.422.415q.285.28.575.561c.162.157.323.315.488.473.185.178.373.358.56.537q.439.42.89.845c.17.161.34.321.513.483.215.2.436.406.655.61l.4.365q.359.332.725.666l.184.166q.861.785,1.762,1.588l.057.05q.469.419.952.843l.126.11c3.515,3.091,7.9,6.729,12.455,10.343-7.605-7.107-12.95-12.568-18.635-18.487-4.581-4.771-9.862-10.3-17.232-17.5h0a125.317,125.317,0,0,1,15.3,12.827c.176.229.356.461.535.692l.178.231q.427.548.866,1.1l.319.4q.3.376.606.756c.124.155.249.31.375.465.2.251.41.5.617.757.12.145.237.29.358.437q.438.529.888,1.068l.528.627.454.537.606.709.357.415q1.17,1.359,2.426,2.773l.194.217q.439.494.89.994l.086.1c2.921,3.242,6.583,7.115,10.286,10.889-5.9-7-11.019-13.7-16.009-20.358-4.757-6.346-9.734-13.011-16.281-21.04h0a133.1,133.1,0,0,1,14.1,15.155q.7,1.173,1.44,2.381l.217.352q.3.486.61.978l.256.408q.334.529.678,1.067l.18.283q.423.661.864,1.334l.283.431c.2.313.411.625.621.941l.373.56q.287.428.579.862c.13.193.259.385.391.579q.379.559.77,1.128.283.412.574.832c.186.268.371.535.559.806.177.254.358.51.538.766q.244.349.494.7c.192.272.384.544.58.819.155.218.315.44.473.661q.582.812,1.187,1.645l.408.563c.228.313.461.63.693.946l.283.385h0c1.508,2.047,3.423,4.586,5.135,6.815-4.923-7.61-10.452-16.823-15.968-26.134-3.832-6.47-7.872-13.345-11.957-20.007-.026-.065.027.065,0,0a140.841,140.841,0,0,1,12.5,17.145q.633,1.421,1.322,2.9l.056.12q.329.7.671,1.418l.061.128q.729,1.524,1.521,3.112c.05.1.1.2.153.306q.3.6.606,1.2l.273.535q.257.5.519,1.011l.319.616c.175.337.355.677.534,1.018.209.4.423.8.638,1.206.15.281.3.56.45.845.174.324.353.653.531.981.109.2.218.4.33.608q.291.534.589,1.075l.275.5c.22.4.442.8.667,1.2l.019.034c1.705,3.057,3.828,6.725,5.889,10.186-4.746-9.724-8.851-18.756-13.7-29.6-2.639-5.9-5.7-12.832-9.19-20.476-.026-.094.027.094,0,0a146.84,146.84,0,0,1,10.71,19.088q.466,1.469.978,3l.076.226q.224.664.457,1.34c.037.107.072.213.11.32q.236.682.481,1.375l.087.248q.283.795.578,1.608c.058.157.118.319.175.478.133.365.269.73.406,1.1.1.261.2.526.295.79s.2.532.3.8c.119.313.238.625.359.941l.232.6q1.074,2.774,2.3,5.764l.05.124c1.506,3.662,3.4,8.039,5.3,12.275-3.384-9.477-6.416-18.935-9.4-28.448-2.439-7.775-5-16.024-7.934-24.63-.013-.07.012.071,0,0A151.756,151.756,0,0,1,244.086,95.5q.294,1.489.629,3.04l.047.219q.15.688.305,1.387c.028.127.057.253.085.381q.146.645.3,1.3l.093.4q.178.762.365,1.538l.068.286q.181.746.37,1.507c.069.277.141.558.212.839s.14.554.212.835q.127.5.259,1.005.085.326.172.655.153.581.31,1.169c.028.106.058.213.086.318q.834,3.1,1.814,6.475l.016.056c.95,3.262,2.191,7.308,3.369,11.006-1.724-6.975-3.641-16.487-5.467-25.921-1.735-8.963-3.706-19.253-5.958-29.226,0-.058,0,.058,0,0a154.3,154.3,0,0,1,6.346,22.041c.025.289.052.582.08.874.013.135.024.27.037.406q.071.771.152,1.557c.016.156.033.316.049.473.039.373.078.747.12,1.126.024.225.05.451.076.677.036.314.071.63.109.948.029.257.06.514.091.774.035.289.071.581.108.874s.069.563.106.848c.026.209.056.423.083.634q.135,1.031.282,2.092c.023.169.046.336.07.506q.087.614.178,1.238l.069.474q.1.664.2,1.341c.014.091.028.184.042.276.8,5.2,1.938,11.548,3.224,17.988-1.055-7.878-2.108-19.361-3.18-31.9-.66-7.722-1.328-16-2.128-24.383.005-.1-.005.1,0,0a148.89,148.89,0,0,1,3.546,23.83v.479c0,.4,0,.808,0,1.217,0,.171,0,.343,0,.515q0,.586.013,1.182c0,.155,0,.311.006.467.008.54.019,1.085.03,1.638,0,.1.005.211.008.316q.016.678.036,1.368c.005.206.013.415.019.622q.017.567.038,1.145c.007.216.015.432.023.651q.027.7.057,1.408.014.338.029.678.032.71.067,1.431c.013.263.026.53.04.8q.028.532.058,1.073c.016.289.031.577.048.869.021.377.044.759.067,1.142.019.31.038.618.058.931q.052.825.108,1.667c.022.318.044.642.067.963.024.353.049.706.076,1.064.024.34.049.681.074,1.025.027.366.057.738.085,1.109.025.332.05.66.078,1l0,.049h0c.184,2.3.431,5.141.665,7.647V71.42c1.827,13.788,2.432,29.84,0,56.507h0c1.035-7.844,2.046-19.569,3.1-31.9.674-7.888,1.372-16.04,2.194-24.616,0,.063.008.15.014.241a160.077,160.077,0,0,1-.2,22.783,312.231,312.231,0,0,1-5.109,33.5c1.7-6.932,3.586-16.629,5.389-25.94,1.763-9.105,3.757-19.4,6.054-29.527l-.019.321a159.392,159.392,0,0,1-2.631,22.292,311.4,311.4,0,0,1-8.793,32.854c3.273-9.213,6.416-19.2,9.325-28.478,2.484-7.919,5.054-16.1,8.058-24.89l-.048.291a157.026,157.026,0,0,1-5.009,21.631A303.392,303.392,0,0,1,252.8,127.926c4.594-9.446,8.894-19.051,13.633-29.639,2.7-6.024,5.744-12.834,9.333-20.687l-.072.251a152.884,152.884,0,0,1-7.286,20.655A290.872,290.872,0,0,1,252.8,127.926c4.828-7.493,10.507-17.075,15.9-26.184,3.917-6.613,7.964-13.444,12.146-20.252l-.122.295a147.386,147.386,0,0,1-9.507,19.505,276.8,276.8,0,0,1-18.42,26.636c5.8-6.886,11.024-13.844,15.95-20.416,4.827-6.442,9.821-13.1,16.516-21.3l-.174.314a140.469,140.469,0,0,1-11.495,17.93,264.644,264.644,0,0,1-20.8,23.469c7.42-6.947,12.98-12.72,18.582-18.553,4.653-4.845,9.923-10.332,17.479-17.705l-.192.267a132.27,132.27,0,0,1-13.183,16,248.423,248.423,0,0,1-22.685,20c6.147-4.392,10.826-8.2,15.856-12.317,5.219-4.269,11.7-9.571,22.915-18.012l-.243.264a124.348,124.348,0,0,1-15.217,14.333,241.305,241.305,0,0,1-23.31,15.731c6.337-3.433,12.948-7.5,19.047-11.276,6.072-3.755,12.944-8,21.442-12.778l-.242.2a114.534,114.534,0,0,1-17.167,12.144h0c-5.951,3.438-13.139,7.111-22.445,11.433l-.638.274c6.831-2.6,12.616-5.229,19.022-8.109,6.035-2.714,12.867-5.785,22.242-9.6l-.253.166A105.494,105.494,0,0,1,275.746,120.4h0a180.7,180.7,0,0,1-22.948,7.531c4.979-.847,13.135-3.186,20.574-5.332,7.575-2.186,15.391-4.438,20.7-5.368l-.4.185c-5.523,2.558-11.226,5.313-19.26,7.318a131.032,131.032,0,0,1-21.616,3.2c6.727.015,15.889-.965,23.479-1.8,6.149-.673,11.961-1.307,15.976-1.355l-.4.108a100.8,100.8,0,0,1-20.006,3.888c-1.811.13-3.689.207-5.655.207a93.861,93.861,0,0,1-13.392-1.053c4.26,1.112,10.033,1.583,16.224,2.054,5.694.434,12.134.927,19.421,2.054l-.377.024c-3.22.211-6.02.31-8.746.31a90.43,90.43,0,0,1-11.926-.579,60.154,60.154,0,0,1-14.6-3.862c3.036,1.642,7.84,3.067,12.952,4.532a161.8,161.8,0,0,1,16.678,5.491l-.4-.062a97.419,97.419,0,0,1-14.063-3.057q-2.443-.751-4.635-1.578a53.488,53.488,0,0,1-10.535-5.325,82.621,82.621,0,0,0,9.8,6.235c3.132,1.8,7.006,4.02,11.957,7.152l-.262-.1c-4.215-1.655-9.191-3.487-13.78-6.5a36.072,36.072,0,0,1-7.719-6.788c5.969,7.838,15.434,11.1,22.285,13.782h.005a.014.014,0,0,0,.006-.025l-.125-.112a65.688,65.688,0,0,0-10.418-7.69,99.931,99.931,0,0,0,18.341,4.316h0a.017.017,0,0,0,.006-.033l-.19-.1a75.818,75.818,0,0,0-13.544-5.891,95.54,95.54,0,0,0,10.152.378c3.543,0,6.816-.172,9.62-.368.024,0,.027-.041,0-.039l-.2-.061a83.748,83.748,0,0,0-15.392-3.254c7.53-.691,13.786-2.486,19.36-3.988a.022.022,0,0,0,0-.044l-.207-.021a91.453,91.453,0,0,0-9.9-.55c-2.011,0-4.118.068-6.37.219,7.32-2,12.758-4.664,18.281-7.224a.023.023,0,0,0-.007-.045h0l-.218.015a97.667,97.667,0,0,0-16.448,2.506,111.575,111.575,0,0,0,16.776-9.629C294.635,110.049,294.627,110.018,294.6,110.018Z" transform="translate(-210.971 -70.347)"/></g></g></g><g transform="translate(-244 424)"><text class="b" transform="translate(365 -245)"><tspan x="67.02" y="12">RESIDENCES AT UPTOWN NEWPORT</tspan></text></g></g></svg>