<svg xmlns="http://www.w3.org/2000/svg" width="47.134" height="30.204" viewBox="0 0 47.134 30.204"><defs><style>.a{fill:#9ea69c;}</style></defs><g transform="translate(-173.35 -1696.119)"><path class="a" d="M177.1,1705.124h-1.048v5.259h-2.7v-13.954h3.75a2.514,2.514,0,0,1,2.64,2.786v3.122A2.514,2.514,0,0,1,177.1,1705.124Zm.1-5.8c0-.461-.189-.628-.482-.628h-.67v4.358h.67c.293,0,.482-.168.482-.608Z" transform="translate(0 -0.059)"/><path class="a" d="M185.687,1710.6a3.217,3.217,0,0,1-3.394-3.227v-8.045a3.389,3.389,0,0,1,6.768,0v8.045A3.212,3.212,0,0,1,185.687,1710.6Zm.628-11.44a.589.589,0,0,0-.628-.608.606.606,0,0,0-.649.608v8.381a.606.606,0,0,0,.649.608.589.589,0,0,0,.628-.608Z" transform="translate(-1.695)"/><path class="a" d="M192.012,1710.383v-13.954h2.682v11.565h2.828v2.389Z" transform="translate(-3.536 -0.059)"/><path class="a" d="M203.971,1710.383l-.189-2.242H202.19l-.231,2.242h-2.43l2.032-13.954h3.1l2.012,13.954Zm-.88-9.847-.608,5.427h1.069Z" transform="translate(-4.961 -0.059)"/><path class="a" d="M213.82,1710.383c-.419,0-.65-1.278-.65-2.157v-2.787c0-.357-.188-.734-.566-.734h-.628v5.678h-2.7v-13.954H213a2.56,2.56,0,0,1,2.681,2.7v2.787a1.87,1.87,0,0,0,.042,3.436v2.7a7.994,7.994,0,0,0,.357,2.263v.062Zm-.712-11.063c0-.461-.168-.628-.461-.628h-.67v3.939h.67c.293,0,.461-.168.461-.629Z" transform="translate(-6.807 -0.059)"/><path class="a" d="M218.76,1710.383v-13.954h2.7v13.954Z" transform="translate(-8.605 -0.059)"/><path class="a" d="M226.671,1710.6a3.026,3.026,0,0,1-3.311-3.29v-1.215h2.326v1.3a.829.829,0,0,0,.859.943c.545,0,.817-.335.817-.922,0-1.131-.67-1.991-1.614-3.163-1.047-1.174-2.325-2.85-2.325-4.589a3.251,3.251,0,0,1,3.373-3.54,2.975,2.975,0,0,1,3.017,3.268v1.216h-2.325v-1.383a.7.7,0,0,0-.691-.8.758.758,0,0,0-.775.817c0,1.341.67,1.928,1.634,3.206,1.131,1.362,2.3,2.828,2.3,4.63A3.233,3.233,0,0,1,226.671,1710.6Z" transform="translate(-9.476)"/><path class="a" d="M177.1,1724.528h-1.048v5.259h-2.7v-13.954h3.75a2.513,2.513,0,0,1,2.64,2.786v3.121A2.514,2.514,0,0,1,177.1,1724.528Zm.1-5.8c0-.461-.189-.629-.482-.629h-.67v4.358h.67c.293,0,.482-.168.482-.607Z" transform="translate(0 -3.736)"/><path class="a" d="M185.6,1729.787l-.188-2.242h-1.593l-.231,2.242h-2.43l2.032-13.954h3.1l2.012,13.954Zm-.879-9.848-.608,5.427h1.068Z" transform="translate(-1.479 -3.736)"/><path class="a" d="M194.038,1730a3.32,3.32,0,0,1-3.5-3.352v-7.794a3.321,3.321,0,0,1,3.5-3.353,2.97,2.97,0,0,1,3.1,3.227v2.116h-2.346v-2.158a.678.678,0,0,0-.754-.733.688.688,0,0,0-.755.733v8.13a.688.688,0,0,0,.755.733.678.678,0,0,0,.754-.733v-2.18h2.346v2.137A2.97,2.97,0,0,1,194.038,1730Z" transform="translate(-3.257 -3.672)"/><path class="a" d="M200.234,1729.786v-13.954h2.7v13.954Z" transform="translate(-5.094 -3.735)"/><path class="a" d="M207.75,1718.115v3.479h2.011v2.283H207.75v5.909h-2.682v-13.954h5.51v2.283Z" transform="translate(-6.01 -3.735)"/><path class="a" d="M212.822,1729.786v-13.954h2.7v13.954Z" transform="translate(-7.48 -3.735)"/><path class="a" d="M221,1729.994a3.32,3.32,0,0,1-3.5-3.352v-7.794a3.321,3.321,0,0,1,3.5-3.353,2.971,2.971,0,0,1,3.1,3.227v2.117h-2.346v-2.158a.678.678,0,0,0-.755-.734.688.688,0,0,0-.754.734v8.129a.688.688,0,0,0,.754.734.678.678,0,0,0,.755-.734v-2.179H224.1v2.136A2.97,2.97,0,0,1,221,1729.994Z" transform="translate(-8.366 -3.672)"/></g></svg>